/* XPM */
static char *_4jcoin[] = {
/* columns rows colors chars-per-pixel */
"64 64 245 2 ",
"   c black",
".  c #010101",
"X  c #020202",
"o  c #030303",
"O  c #040404",
"+  c #050505",
"@  c #060606",
"#  c #070707",
"$  c #080808",
"%  c #090909",
"&  c #0A0A0A",
"*  c #0B0B0B",
"=  c #0C0C0C",
"-  c #0D0D0D",
";  c #0E0E0E",
":  c gray6",
">  c #101010",
",  c #111111",
"<  c #121212",
"1  c #131313",
"2  c #141414",
"3  c #151515",
"4  c #161616",
"5  c #171717",
"6  c #181818",
"7  c #191919",
"8  c #1A1A1A",
"9  c #1B1B1B",
"0  c #1C1C1C",
"q  c #1D1D1D",
"w  c #1E1E1E",
"e  c #1F1F1F",
"r  c #212121",
"t  c #222222",
"y  c #232323",
"u  c #242424",
"i  c #252525",
"p  c #262626",
"a  c #272727",
"s  c #282828",
"d  c #292929",
"f  c #2A2A2A",
"g  c #2B2B2B",
"h  c #2D2D2D",
"j  c #2E2E2E",
"k  c #2F2F2F",
"l  c #303030",
"z  c #313131",
"x  c #323232",
"c  c #333333",
"v  c #343434",
"b  c #353535",
"n  c #363636",
"m  c #373737",
"M  c #383838",
"N  c #393939",
"B  c #3A3A3A",
"V  c #3B3B3B",
"C  c #3C3C3C",
"Z  c #3E3E3E",
"A  c #3F3F3F",
"S  c #404040",
"D  c #414141",
"F  c #424242",
"G  c #434343",
"H  c #444444",
"J  c #454545",
"K  c #464646",
"L  c #474747",
"P  c #484848",
"I  c #4A4A4A",
"U  c #4B4B4B",
"Y  c #4C4C4C",
"T  c #4D4D4D",
"R  c #4E4E4E",
"E  c #4F4F4F",
"W  c #505050",
"Q  c #515151",
"!  c #525252",
"~  c #535353",
"^  c #545454",
"/  c #555555",
"(  c #565656",
")  c #575757",
"_  c #585858",
"`  c #595959",
"'  c #5A5A5A",
"]  c #5B5B5B",
"[  c #5D5D5D",
"{  c #5E5E5E",
"}  c #5F5F5F",
"|  c #606060",
" . c #616161",
".. c #626262",
"X. c #636363",
"o. c #646464",
"O. c #656565",
"+. c #666666",
"@. c #676767",
"#. c #686868",
"$. c #696969",
"%. c #6A6A6A",
"&. c #6B6B6B",
"*. c #6C6C6C",
"=. c #6D6D6D",
"-. c #6E6E6E",
";. c #6F6F6F",
":. c #707070",
">. c #717171",
",. c #727272",
"<. c #737373",
"1. c #747474",
"2. c #757575",
"3. c #767676",
"4. c #777777",
"5. c #787878",
"6. c #797979",
"7. c #7A7A7A",
"8. c #7B7B7B",
"9. c #7C7C7C",
"0. c gray49",
"q. c #7E7E7E",
"w. c #7F7F7F",
"e. c #808080",
"r. c #818181",
"t. c #828282",
"y. c #838383",
"u. c #858585",
"i. c #868686",
"p. c #878787",
"a. c #888888",
"s. c #898989",
"d. c #8A8A8A",
"f. c #8B8B8B",
"g. c #8C8C8C",
"h. c #8D8D8D",
"j. c #8F8F8F",
"k. c #909090",
"l. c #919191",
"z. c #929292",
"x. c #939393",
"c. c #949494",
"v. c #959595",
"b. c #969696",
"n. c #989898",
"m. c #999999",
"M. c #9A9A9A",
"N. c #9C9C9C",
"B. c #9D9D9D",
"V. c #9E9E9E",
"C. c #9F9F9F",
"Z. c #A0A0A0",
"A. c #A1A1A1",
"S. c #A2A2A2",
"D. c #A3A3A3",
"F. c #A4A4A4",
"G. c #A5A5A5",
"H. c #A6A6A6",
"J. c #A7A7A7",
"K. c #A8A8A8",
"L. c #A9A9A9",
"P. c #ABABAB",
"I. c #ACACAC",
"U. c #ADADAD",
"Y. c #AEAEAE",
"T. c #AFAFAF",
"R. c #B0B0B0",
"E. c #B1B1B1",
"W. c #B2B2B2",
"Q. c #B3B3B3",
"!. c #B4B4B4",
"~. c #B5B5B5",
"^. c #B6B6B6",
"/. c #B7B7B7",
"(. c #B8B8B8",
"). c #B9B9B9",
"_. c #BABABA",
"`. c #BBBBBB",
"'. c #BCBCBC",
"]. c #BDBDBD",
"[. c #BEBEBE",
"{. c #BFBFBF",
"}. c #C0C0C0",
"|. c #C1C1C1",
" X c #C2C2C2",
".X c #C3C3C3",
"XX c #C4C4C4",
"oX c #C5C5C5",
"OX c #C6C6C6",
"+X c #C7C7C7",
"@X c #C8C8C8",
"#X c #C9C9C9",
"$X c #CACACA",
"%X c #CBCBCB",
"&X c #CCCCCC",
"*X c #CDCDCD",
"=X c #CECECE",
"-X c #CFCFCF",
";X c #D0D0D0",
":X c #D1D1D1",
">X c #D2D2D2",
",X c #D3D3D3",
"<X c #D4D4D4",
"1X c #D6D6D6",
"2X c #D7D7D7",
"3X c #D8D8D8",
"4X c #D9D9D9",
"5X c #DADADA",
"6X c #DBDBDB",
"7X c #DCDCDC",
"8X c #DDDDDD",
"9X c #DEDEDE",
"0X c #DFDFDF",
"qX c #E0E0E0",
"wX c #E1E1E1",
"eX c #E2E2E2",
"rX c #E3E3E3",
"tX c #E4E4E4",
"yX c #E5E5E5",
"uX c #E6E6E6",
"iX c #E7E7E7",
"pX c #E8E8E8",
"aX c #E9E9E9",
"sX c #EAEAEA",
"dX c #EBEBEB",
"fX c #ECECEC",
"gX c #EDEDED",
"hX c #EEEEEE",
"jX c #EFEFEF",
"kX c #F0F0F0",
"lX c #F1F1F1",
"zX c #F2F2F2",
"xX c #F3F3F3",
"cX c #F4F4F4",
"vX c #F5F5F5",
"bX c #F6F6F6",
"nX c #F7F7F7",
"mX c #F8F8F8",
"MX c #F9F9F9",
"NX c #FAFAFA",
"BX c #FBFBFB",
"VX c #FCFCFC",
"CX c #FDFDFD",
"ZX c #FEFEFE",
"AX c gray100",
/* pixels */
"* * # * # * # * # * # * # * # * # * # * # * # * # * # * # * # * # * # * # * # * # * # * # * # * # * # * # * # * # * # * # * # - ",
"X X X X X X X X X X X X X X X X X X X X X X X X X X X X X X X X X X X X X X X X X X X X X X X X X X X X X X X X X X X X X X X * ",
"X X X X X X X X X X X X X X X X X X X X X X X X X X X X X X X X X X X X X X X X X X X X X X X X X X X X X X X X X X X X X X X # ",
"X X X X X X X X X X X X X X X X X X X X X X X X X X X X X X X X X X X X X X X X X X X X X X X X X X X X X X X X X X X X X X X # ",
"X X X X X X X X X X X X X X X X X X X X X X X X X # e M / ;.0.u.u.0.;./ v e # X X X X X X X X X X X X X X X X X X X X X X X X # ",
"X X X X X X X X X X X X X X X X X X X X X X - D 0.~.7XvXZXZXZXZXZXZXZXZXvX7X~.8.C > X X X X X X X X X X X X X X X X X X X X X # ",
"X X X X X X X X X X X X X X X X X X X X a 4.XXvXZXZXvXrXXXL.B.x.c.B.U.XXrXvXZXZXkXXX4.a X X X X X X X X X X X X X X X X X X X # ",
"X X X X X X X X X X X X X X X X X X a s.7XZXZXyXU.;.M 6 * # # * * # # * 6 C :.U.yXZXZX7Xy.t X X X X X X X X X X X X X X X X X # ",
"X X X X X X X X X X X X X X X X > :.7XZXMXXX;.t # > M @.g.L.).|.].).H.s.@.v > # a :.@XMXZX5X%.- X X X X X X X X X X X X X X X # ",
"X X X X X X X X X X X X X X X k R.ZXZXXX_ - - P m.<XkXZXZXZXZXZXZXZXZXZXZXkX:Xc.K - > [ @XZXMXU.s X X X X X X X X X X X X X X # ",
"X X X X X X X X X X X X X X / 7XZXyX4.> > @.XXMXZXZXZXZXZXZXZXZXZXZXZXZXZXZXZXZXvX|...> 2 8.sXZX5XQ X X X X X X X X X X X X X # ",
"X X X X X X X X X X X X # ;.jXZX|.v # Q @XZXZXZXZXZXZXZXZXZXZXZXZXZXZXZXZXZXZXZXZXZXZX|.R # M XXZXjX%.X X X X X X X X X X X X # ",
"X X X X X X X X X X X # 4.vXMXB.6 e m.vXZXZXZXZXZXZXZXZXZXZXZXZXZXZXZXZXZXZXZXZXZXZXZXZXvXc.6 6 D.ZXkX4.X X X X X X X X X X X # ",
"X X X X X X X X X X X :.vXMXs.* M @XZXZXZXZXZXZXZXZXZXZXZXZXZXZXZXZXZXZXZXZXZXZXZXZXZXZXZXZXXXv * g.ZXkX%.X X X X X X X X X X # ",
"X X X X X X X X X X _ kXZXs.* P 7XZXZXZXZXZXZXZXZXZXZXZXZXZXZXZXZXZXZXZXZXZXZXZXZXZXZXZXZXZXZX5XD * g.ZXjXQ X X X X X X X X X # ",
"X X X X X X X X X x 7XZXm.- P rXZXZXZXZXZXZXZXZXZXZXZXZXZXZXZXZXZXZXZXZXZXZXZXZXZXZXZXZXZXZXZXZXrXK - D.ZX<Xk X X X X X X X X # ",
"X X X X X X X X > ~.ZX].2 C 7XZXZXZXZXZXZXZXZXZXZXZXZXZXZXZXZXZXZXZXZXZXZXZXZXZXZXZXZXZXZXZXZXZXZX5Xv 6 |.ZXU.- X X X X X X X # ",
"X X X X X X X X 4.ZXrXv e @XZXZXZXZXZXZXZXZXZXZXZXZXZXZXZXZXZXZXZXZXZXZXZXZXZXZXZXZXZXZXZXZXZXZXZXZX|.e C yXZX;.X X X X X X X # ",
"X X X X X X X s 7XZX:.* B.ZXZXZXZXZXZXZXZXZXZXZXZXZXZXZXZXMXMXMXMXMXMXMXMXMXMXZXZXZXZXZXZXZXZXZXZXZXZXc.# 8.ZX5Xt X X X X X X # ",
"X X X X X X X g.ZX|.> / vXZXZXZXZXZXZXZXZXZXZXZXZXZXZXZXjX..K K K K K K K K K R.ZXZXZXZXZXZXZXZXZXZXZXkXQ 2 @XZXu.X X X X X X # ",
"X X X X X X s rXMX/ 2 @XZXZXZXZXZXZXZXZXZXZXZXZXZXZXZXZXyXa X X X X X X X X X m.ZXZXZXZXZXZXZXZXZXZXZXZXXX> [ ZX7Xt X X X X X # ",
"X X X X X X 0.ZX].- ;.ZXZXZXZXZXZXZXZXZXZXZXZXZXZXZXZXZXyXa X X X X X X X X X c.ZXZXZXZXZXZXZXZXZXZXZXZXMX@.> XXZX4.X X X X X # ",
"X X X X X 2 &XZX@.> @XZXZXZXZXZXZXZXZXZXZXZXZXZXZXZXZXZXyXs X X X X X X X X X m.ZXZXZXZXZXZXZXZXZXZXZXZXZXXX- ;.ZXXX> X X X X # ",
"X X X X X K vXrXt Q MXZXZXZXZXZXZXZXZXZXZXZXZXZXZXZXZXZXyXa X X X X X X X X X m.ZXZXZXZXZXZXZXZXZXZXZXZXZXvXP a yXvXC X X X X # ",
"X X X X X u.ZXH.# B.ZXZXZXZXZXZXZXZXZXZXZXZXZXZXZXZXZXZXsXx * > - # X X X X X c.ZXZXZXZXZXZXZXZXZXZXZXZXZXZXc.# U.ZX0.X X X X # ",
"X X X X * ].ZX@.2 5XZXZXZXZXZXZXZXZXZXZXZXZXZXZXZXZXZXZXMX:X@X@X@X..X X X X X m.ZXZXZXZXZXZXZXZXZXZXZXZXZXZX:X> :.ZX~.* X X X # ",
"X X X X t rXkXv D vXZXZXZXZXZXZXZXZXZXZXZXZXZXZXZXZXZXZXZXZXZXZXZX8.X X X X X c.ZXZXZXZXZXZXZXZXZXZXZXZXZXZXkXM M vX7Xe X X X # ",
"X X X X D MX5X2 ;.ZXZXZXZXZXZXZXZXZXZXZXZXZXZXZXZXZXZXZXZXjXjXjXkX4.X X X X X m.ZXZXZXZXZXZXZXZXZXZXZXZXZXZXZX@.6 rXvXM X X X # ",
"X X X X [ ZX].# c.ZXZXZXZXZXZXZXZXZXZXZXZXZXZXZXZXZXZXZXjXP a s s 2 X X X X X c.ZXZXZXZXZXZXZXZXZXZXZXZXZXZXZXg.* XXZX/ X X X # ",
"X X X X 4.ZXD.# R.ZXZXZXZXZXZXZXZXZXZXZXZXZXZXZXZXZXZXZXkXy.%.%.;.x X X X X X m.ZXZXZXZXZXZXZXZXZXZXZXZXZXZXZXL.# U.ZX;.X X X # ",
"X X X X u.ZXc.* |.ZXZXZXZXZXZXZXZXZXZXZXZXZXZXZXZXZXZXZXZXsXsXsXjX:.X X X X X c.ZXZXZXZXZXZXZXZXZXZXZXZXZXZXZX).# m.ZX0.X X X # ",
"X X X X g.ZXs.- @XZXZXZXZXZXZXZXZXZXZXZXZXZXZXZXZXZXZXZXsXK t t a > X X X X X m.ZXZXZXZXZXZXZXZXZXZXZXZXZXZXZX|.* c.ZXu.X X X # ",
"X X X X g.ZXs.* @XZXZXZXZXZXZXZXZXZXZXZXZXZXZXZXZXZXZXZXkXs.4.4.4.M X X X X X c.ZXZXZXZXZXZXZXZXZXZXZXZXZXZXZX|.* x.ZXu.X X X # ",
"X X X X s.ZXx.# |.ZXZXZXZXZXZXZXZXZXZXZXZXZXZXZXZXZXZXZXZXZXZXZXZX8.X X X X X m.ZXZXZXZXZXZXZXZXZXZXZXZXZXZXZX).# B.ZX0.X X X # ",
"X X X X 8.ZXH.# R.ZXZXZXZXZXZXZXZXZXZXZXZXZXZXZXZXZXZXZXZXZXZXZXZX0.X X X X X c.ZXZXZXZXZXZXZXZXZXZXZXZXZXZXZXL.# L.ZX;.X X X # ",
"X X X X [ ZX).* c.ZXZXZXZXZXZXZXZXZXZXZXZXZXZXZXZXZXZXZXZXZXZXZXZX0.X X X X X m.ZXZXZXZXZXZXZXZXZXZXZXZXZXZXZXg.* |.ZX_ X X X # ",
"X X X X D MX5X2 :.ZXZXZXZXZXZXZXZXZXZXZXZXZXZXZXZXZXZXZXZXZXZXZXZX8.X X X X X c.ZXZXZXZXZXZXZXZXZXZXZXZXZXZXZX@.6 7XvXM X X X # ",
"X X X X t rXkXx D MXZXZXZXZXZXZXZXZXZXZXZXZXZXZXMXjXZXZXZXZXZXZXZX[ X X X X X D.ZXZXZXZXZXZXZXZXZXZXZXZXZXZXvXM M vX7Xe X X X # ",
"X X X X * |.ZX..6 5XZXZXZXZXZXZXZXZXZXZXZXZXZXMXs.R 7XZXZXZXZXZXrXs X X X X # ).ZXZXZXZXZXZXZXZXZXZXZXZXZXZX<X2 ;.ZX~.* X X X # ",
"X X X X X s.ZXD.# D.ZXZXZXZXZXZXZXZXZXZXZXZXZXD.- X v ~.vXZXZXjX;.X X X X X e 7XZXZXZXZXZXZXZXZXZXZXZXZXZXZXm.# L.ZXy.X X X X # ",
"X X X X X P MX7Xe Q MXZXZXZXZXZXZXZXZXZXZXZXR.6 X X X * C %.@.v # X X X X X Q MXZXZXZXZXZXZXZXZXZXZXZXZXZXMXP t yXvXD X X X X # ",
"X X X X X 2 &XZX@.> &XZXZXZXZXZXZXZXZXZXZX&Xt X X X X X X X X X X X X X X * U.ZXZXZXZXZXZXZXZXZXZXZXZXZXZX@X> ;.ZX@X> X X X X # ",
"X X X X X X u.ZX].* :.ZXZXZXZXZXZXZXZXZXZXrXD X X X X X X X X X X X X X X @.MXZXZXZXZXZXZXZXZXZXZXZXZXZXZX%.> |.ZX8.X X X X X # ",
"X X X X X X k yXvXQ 6 &XZXZXZXZXZXZXZXZXZXZXrX_ # X X X X X X X X X X X _ yXZXZXZXZXZXZXZXZXZXZXZXZXZXZX@X> _ MXrXs X X X X X # ",
"X X X X X X X x.ZX).- [ MXZXZXZXZXZXZXZXZXZXZXvXB.M * X X X X X X X a s.jXZXZXZXZXZXZXZXZXZXZXZXZXZXZXvX/ > |.ZXs.X X X X X X # ",
"X X X X X X X k rXZX;.* D.ZXZXZXZXZXZXZXZXZXZXZXZXjX~.0./ K D Q :.H.rXZXZXZXZXZXZXZXZXZXZXZXZXZXZXZXZXB.# 4.ZX7Xs X X X X X X # ",
"X X X X X X X X 8.ZX7Xx t &XZXZXZXZXZXZXZXZXZXZXZXZXZXZXZXMXMXMXZXZXZXZXZXZXZXZXZXZXZXZXZXZXZXZXZXZX@Xe v yXZX:.X X X X X X X # ",
"X X X X X X X X 2 ].ZX~.2 D rXZXZXZXZXZXZXZXZXZXZXZXZXZXZXZXZXZXZXZXZXZXZXZXZXZXZXZXZXZXZXZXZXZXZXrXC 2 ].ZX~.- X X X X X X X # ",
"X X X X X X X X X v rXZXx.* Q sXZXZXZXZXZXZXZXZXZXZXZXZXZXZXZXZXZXZXZXZXZXZXZXZXZXZXZXZXZXZXZXZXyXP * m.ZX7Xv X X X X X X X X # ",
"X X X X X X X X X X ..kXMX0.# Q yXZXZXZXZXZXZXZXZXZXZXZXZXZXZXZXZXZXZXZXZXZXZXZXZXZXZXZXZXZXZXrXR * u.ZXjX_ X X X X X X X X X # ",
"X X X X X X X X X X X 4.MXvX0.* D &XZXZXZXZXZXZXZXZXZXZXZXZXZXZXZXZXZXZXZXZXZXZXZXZXZXZXZXZX@XC - u.MXvX;.X X X X X X X X X X # ",
"X X X X X X X X X X X # y.MXMXx.> t H.vXZXZXZXZXZXZXZXZXZXZXZXZXZXZXZXZXZXZXZXZXZXZXZXZXMXB.t 2 m.MXvX8.# X X X X X X X X X X # ",
"X X X X X X X X X X X X # 8.kXZX~.x * [ &XZXZXZXZXZXZXZXZXZXZXZXZXZXZXZXZXZXZXZXZXZXZX&X_ * x ).ZXkX:.# X X X X X X X X X X X # ",
"X X X X X X X X X X X X X X [ rXZX7X%.- 2 4.&XMXZXZXZXZXZXZXZXZXZXZXZXZXZXZXZXZXMX&X;.2 > :.rXZXrX_ X X X X X X X X X X X X X # ",
"X X X X X X X X X X X X X X X M ].ZXMX].Q * > / H.5XMXZXZXZXZXZXZXZXZXZXZXvX5XB.Q > * Q |.MXZX~.x X X X X X X X X X X X X X X # ",
"X X X X X X X X X X X X X X X X 2 8.rXZXMX)...e # 2 D :.m.R.XX@X@X|.~.c.:.D 2 # e @.].MXZX7X4.> X X X X X X X X X X X X X X X # ",
"X X X X X X X X X X X X X X X X X X s c.yXZXZX7XD...x > # # * - - * # # > x @.H.rXZXZXyXg.s X X X X X X X X X X X X X X X X X # ",
"X X X X X X X X X X X X X X X X X X X X k u.&XMXZXZXkX<X).D.x.s.s.x.D.].5XkXZXZXMX&X0.k # X X X X X X X X X X X X X X X X X X # ",
"X X X X X X X X X X X X X X X X X X X X X X 2 P s.|.yXMXZXZXZXZXZXZXZXZXMXyX].s.K > X X X X X X X X X X X X X X X X X X X X X # ",
"X X X X X X X X X X X X X X X X X X X X X X X X X - a D ..4.s.g.x.u.8.[ D t * X X X X X X X X X X X X X X X X X X X X X X X X # ",
"X X X X X X X X X X X X X X X X X X X X X X X X X X X X X X X X X X X X X X X X X X X X X X X X X X X X X X X X X X X X X X X # ",
"X X X X X X X X X X X X X X X X X X X X X X X X X X X X X X X X X X X X X X X X X X X X X X X X X X X X X X X X X X X X X X X # ",
"X X X X X X X X X X X X X X X X X X X X X X X X X X X X X X X X X X X X X X X X X X X X X X X X X X X X X X X X X X X X X X X # ",
"X X X X X X X X X X X X X X X X X X X X X X X X X X X X X X X X X X X X X X X X X X X X X X X X X X X X X X X X X X X X X X X * "
};
