/* XPM */
static char *jcoin32[] = {
/* columns rows colors chars-per-pixel */
"32 32 150 2 ",
"   c #000000",
".  c #010101",
"X  c #020202",
"o  c #030303",
"O  c #040404",
"+  c #050505",
"@  c #060606",
"#  c #070707",
"$  c #080808",
"%  c #0B0B0B",
"&  c #171717",
"*  c #181818",
"=  c #191919",
"-  c #1A1A1A",
";  c #1B1B1B",
":  c #232323",
">  c #242424",
",  c #252525",
"<  c #262626",
"1  c #272727",
"2  c #282828",
"3  c #2A2A2A",
"4  c #2C2C2C",
"5  c #2D2D2D",
"6  c #2F2F2F",
"7  c #323232",
"8  c #333333",
"9  c #353535",
"0  c #363636",
"q  c #393939",
"w  c #3A3A3A",
"e  c #3C3C3C",
"r  c #3D3D3D",
"t  c #3F3F3F",
"y  c #474747",
"u  c #4C4C4C",
"i  c #505050",
"p  c #515151",
"a  c #545454",
"s  c #555555",
"d  c #565656",
"f  c #585858",
"g  c #595959",
"h  c #5A5A5A",
"j  c #5B5B5B",
"k  c #5C5C5C",
"l  c #5E5E5E",
"z  c #5F5F5F",
"x  c #606060",
"c  c #626262",
"v  c #676767",
"b  c #686868",
"n  c #696969",
"m  c #6B6B6B",
"M  c #6C6C6C",
"N  c #6E6E6E",
"B  c #6F6F6F",
"V  c #707070",
"C  c #717171",
"Z  c #727272",
"A  c #737373",
"S  c #747474",
"D  c #757575",
"F  c #7C7C7C",
"G  c #808080",
"H  c #858585",
"J  c #868686",
"K  c #888888",
"L  c #898989",
"P  c #8A8A8A",
"I  c #8B8B8B",
"U  c #8C8C8C",
"Y  c #8D8D8D",
"T  c #8E8E8E",
"R  c #8F8F8F",
"E  c #909090",
"W  c #919191",
"Q  c #989898",
"!  c #999999",
"~  c #9A9A9A",
"^  c #9B9B9B",
"/  c #9C9C9C",
"(  c #9D9D9D",
")  c #9F9F9F",
"_  c #A0A0A0",
"`  c #A1A1A1",
"'  c #A2A2A2",
"]  c #A4A4A4",
"[  c #A7A7A7",
"{  c #A8A8A8",
"}  c #A9A9A9",
"|  c #AAAAAA",
" . c #ABABAB",
".. c #ACACAC",
"X. c #ADADAD",
"o. c #AEAEAE",
"O. c #AFAFAF",
"+. c #B1B1B1",
"@. c #B2B2B2",
"#. c #B3B3B3",
"$. c #B4B4B4",
"%. c gray71",
"&. c #B6B6B6",
"*. c #B7B7B7",
"=. c #B9B9B9",
"-. c #BABABA",
";. c #BBBBBB",
":. c #BCBCBC",
">. c #BDBDBD",
",. c #C0C0C0",
"<. c #C1C1C1",
"1. c #C2C2C2",
"2. c #C3C3C3",
"3. c #C5C5C5",
"4. c #C7C7C7",
"5. c #C9C9C9",
"6. c #CACACA",
"7. c #CBCBCB",
"8. c #CCCCCC",
"9. c #CDCDCD",
"0. c #CECECE",
"q. c #CFCFCF",
"w. c #D0D0D0",
"e. c #D2D2D2",
"r. c #D4D4D4",
"t. c #D5D5D5",
"y. c #D7D7D7",
"u. c #D9D9D9",
"i. c #DCDCDC",
"p. c #DDDDDD",
"a. c #DEDEDE",
"s. c #E0E0E0",
"d. c #E1E1E1",
"f. c #E8E8E8",
"g. c #EAEAEA",
"h. c #EBEBEB",
"j. c #ECECEC",
"k. c #EDEDED",
"l. c #EFEFEF",
"z. c #F0F0F0",
"x. c #F1F1F1",
"c. c #F3F3F3",
"v. c #F5F5F5",
"b. c #F7F7F7",
"n. c #FAFAFA",
"m. c #FBFBFB",
"M. c #FCFCFC",
"N. c #FDFDFD",
"B. c #FEFEFE",
"V. c #FFFFFF",
/* pixels */
"+ + + + + + + + + + + + +   + + + + + + + + + + +   + + + + + + ",
"                              + +                             + ",
"                    + : z P [ @.@.| P h : +                   + ",
"                + w ! 5.&.Y S m m S Y &.5.! w                   ",
"              * P q.Y h M ) >.5.q.=.! M z Y q.P &             + ",
"            4 =...d Y a.V.V.V.V.V.V.V.V.a.P d ..&.3           + ",
"          4 3.Y z e.V.V.V.V.V.V.V.V.V.V.V.V.q.z W 3.3         + ",
"        * =.Y m h.V.V.V.V.V.V.V.V.V.V.V.V.V.V.h.m W =.*         ",
"+     + Y | z h.V.V.V.V.V.V.V.V.V.V.V.V.V.V.V.V.h.h ..P       + ",
"      r q.d e.V.V.V.V.V.V.V.q.! ! ! ! =.V.V.V.V.V.q.d q.w     + ",
"      ) P Y V.V.V.V.V.V.V.V.J         d n.V.V.V.V.V.P Y !     + ",
"    < 5.h a.V.V.V.V.V.V.V.V.J         a V.V.V.V.V.V.u.h 5.:   + ",
"    z @.C V.V.V.V.V.V.V.V.V.=.C a     d n.V.V.V.V.V.V.M &.h   + ",
"    Y P ) V.V.V.V.V.V.V.V.V.x.h._ +   d V.V.V.V.V.V.V.) Y Y   + ",
"  + | C ,.V.V.V.V.V.V.V.V.V.=.M u     d n.V.V.V.V.V.V.>.S |   + ",
"  % &.m q.V.V.V.V.V.V.V.V.V.,.G z     a V.V.V.V.V.V.V.5.m &.+   ",
"  % &.m q.V.V.V.V.V.V.V.V.V.u.@.F     d V.V.V.V.V.V.V.5.M @.+ + ",
"    | C ,.V.V.V.V.V.V.V.V.V.V.V.&.+   d n.V.V.V.V.V.V.>.S |   + ",
"    Y P _ V.V.V.V.V.V.V.x.V.V.V.| +   d V.V.V.V.V.V.V.) Y Y   + ",
"    c @.C V.V.V.V.V.V.t.u [ x.j.c     C V.V.V.V.V.V.V.M &.h   + ",
"    3 5.h a.V.V.V.V.j.y   % 9 9 +   % &.V.V.V.V.V.V.a.h 5.<   + ",
"    + _ P W V.V.V.V.x.v +         + M b.V.V.V.V.V.V.P Y !     + ",
"      r 5.d t.V.V.V.V.b.| h 9 9 a ) x.V.V.V.V.V.V.e.d q.r     + ",
"      + W [ c j.V.V.V.V.V.n.x.j.n.V.V.V.V.V.V.V.h.c ..Y         ",
"        ; >.P M j.V.V.V.V.V.V.V.V.V.V.V.V.V.V.j.m Y >.*       + ",
"          7 5.P c t.V.V.V.V.V.V.V.V.V.V.V.V.e.c P 3.4         + ",
"            7 >.| d W s.V.V.V.V.V.V.V.V.s.Y d | =.4           + ",
"              * Y q.P h C _ ,.e.e.,._ C h P q.Y *             + ",
"                + r _ 5.@.P C m v C P @.5._ r +               + ",
"                    + 3 z W | &.&.| Y c < +                     ",
"                              % % +                           + ",
"                                                              + "
};
