/* XPM */
static char *jcoin16[] = {
/* columns rows colors chars-per-pixel */
"16 16 182 2 ",
"   c black",
".  c #000000",
"X  c #000000",
"o  c #000000",
"O  c #000000",
"+  c #000000",
"@  c #000000",
"#  c #000000",
"$  c #000000",
"%  c #000000",
"&  c #000000",
"*  c #000000",
"=  c #000000",
"-  c #000000",
";  c #010101",
":  c #010101",
">  c #010101",
",  c #010101",
"<  c #010101",
"1  c #020202",
"2  c #020202",
"3  c #020202",
"4  c #020202",
"5  c #020202",
"6  c #020202",
"7  c #020202",
"8  c #020202",
"9  c #020202",
"0  c #020202",
"q  c #020202",
"w  c #020202",
"e  c #030303",
"r  c #040404",
"t  c #050505",
"y  c #090909",
"u  c #090909",
"i  c #090909",
"p  c #090909",
"a  c #0A0A0A",
"s  c #0A0A0A",
"d  c #0A0A0A",
"f  c #0A0A0A",
"g  c #0E0E0E",
"h  c #151515",
"j  c #151515",
"k  c #151515",
"l  c #151515",
"z  c #161616",
"x  c #161616",
"c  c #161616",
"v  c #161616",
"b  c #161616",
"n  c #1C1C1C",
"m  c #1C1C1C",
"M  c #1C1C1C",
"N  c #1D1D1D",
"B  c #1D1D1D",
"V  c #1D1D1D",
"C  c #1E1E1E",
"Z  c #1E1E1E",
"A  c #212121",
"S  c #2F2F2F",
"D  c #333333",
"F  c #343434",
"G  c #343434",
"H  c #343434",
"J  c #3C3C3C",
"K  c #3E3E3E",
"L  c #424242",
"P  c #424242",
"I  c #434343",
"U  c #434343",
"Y  c #434343",
"T  c #444444",
"R  c #444444",
"E  c #454545",
"W  c #474747",
"Q  c #4F4F4F",
"!  c #575757",
"~  c #575757",
"^  c #585858",
"/  c #585858",
"(  c #585858",
")  c #595959",
"_  c #595959",
"`  c #595959",
"'  c #5A5A5A",
"]  c #797979",
"[  c #797979",
"{  c #797979",
"}  c #797979",
"|  c #7A7A7A",
" . c #7A7A7A",
".. c #7A7A7A",
"X. c #7B7B7B",
"o. c #858585",
"O. c #858585",
"+. c #858585",
"@. c #858585",
"#. c #868686",
"$. c #868686",
"%. c #868686",
"&. c #868686",
"*. c #8A8A8A",
"=. c #8A8A8A",
"-. c #8A8A8A",
";. c #8A8A8A",
":. c #8B8B8B",
">. c #8B8B8B",
",. c #8B8B8B",
"<. c #8B8B8B",
"1. c #8B8B8B",
"2. c #8D8D8D",
"3. c #939393",
"4. c #939393",
"5. c #939393",
"6. c #939393",
"7. c #A5A5A5",
"8. c #A5A5A5",
"9. c #A5A5A5",
"0. c #A5A5A5",
"q. c #A5A5A5",
"w. c #A6A6A6",
"e. c #A6A6A6",
"r. c #A6A6A6",
"t. c #A9A9A9",
"y. c #ABABAB",
"u. c #B3B3B3",
"i. c #B4B4B4",
"p. c #B6B6B6",
"a. c #B8B8B8",
"s. c #BFBFBF",
"d. c #C4C4C4",
"f. c #C4C4C4",
"g. c #C5C5C5",
"h. c #C5C5C5",
"j. c #C5C5C5",
"k. c #C6C6C6",
"l. c #C6C6C6",
"z. c #C6C6C6",
"x. c #C6C6C6",
"c. c #C6C6C6",
"v. c #C7C7C7",
"b. c #C7C7C7",
"n. c #C7C7C7",
"m. c #C7C7C7",
"M. c #C8C8C8",
"N. c #C8C8C8",
"B. c #CECECE",
"V. c #D3D3D3",
"C. c #D9D9D9",
"Z. c #DADADA",
"A. c #DADADA",
"S. c #DADADA",
"D. c #DADADA",
"F. c #DBDBDB",
"G. c #DBDBDB",
"H. c #DBDBDB",
"J. c #E3E3E3",
"K. c #E4E4E4",
"L. c #E7E7E7",
"P. c #F2F2F2",
"I. c #F2F2F2",
"U. c #F2F2F2",
"Y. c #F5F5F5",
"T. c #F5F5F5",
"R. c #F5F5F5",
"E. c #F9F9F9",
"W. c #F9F9F9",
"Q. c #F9F9F9",
"!. c #F9F9F9",
"~. c #FAFAFA",
"^. c #FAFAFA",
"/. c #FAFAFA",
"(. c #FAFAFA",
"). c #FAFAFA",
"_. c #FCFCFC",
"`. c #FDFDFD",
"'. c #FDFDFD",
"]. c #FEFEFE",
"[. c #FEFEFE",
"{. c gray100",
/* pixels */
"e 0 w q , > f v c s : < q w 9 r ",
"-     O M ^ } @.+.{ ~ n X     6 ",
"-   2 I -.0.n.S.A.v.8.*.L 1   6 ",
"=   U 4.j.^.{.{.{.{.!.f.3.P   5 ",
"  V :.g.{.{.].V.s.B._.{.d.=.m . ",
"  _ q.Q.{.{.).! t K U.{.E.7./   ",
"u | b.{.{.{.'.i.G F P.{.{.k.] a ",
"h #.D.{.{.{.`.y.S H P.{.{.C.o.z ",
"k $.F.{.{.{.[.J.Q D I.{.{.Z.O.x ",
"p  .m.{.{.L.a.K.W J R.{.{.z.[ d ",
"  ' w.~.{.t.b A g 1.{.{.W.9.(   ",
"  Z <.x.{.Y.p.2.u.T.{.{.h.;.N   ",
"*   E 6.c.(.{.{.{.{./.l.5.T   4 ",
"-   7 R ,.r.N.H.G.M.e.>.Y 3   6 ",
"-     $ C ` X.&.%...) B +     6 ",
"; + # @   & i l j y %   @ # o 8 "
};
